<svg width="543" height="542" viewBox="0 0 543 542" fill="none" xmlns="http://www.w3.org/2000/svg">
<path fill-rule="evenodd" clip-rule="evenodd" d="M2.5603 23.5954C6.6803 12.5824 15.3973 4.57134 26.5613 1.53434C35.3873 -0.865657 159.41 -0.280658 164.866 2.18734C174.681 6.62534 180.283 14.0303 182.494 25.4843C184.912 38.0153 183.447 153.341 180.78 160.411C176.7 171.226 167.017 178.77 154.417 180.949C142.559 183 27.2743 181.812 20.5283 179.569C12.4833 176.895 4.3463 168.533 1.9243 160.451C-0.994704 150.712 -0.440702 31.6164 2.5603 23.5954ZM213.55 67.4444C213.524 9.44836 213.815 7.74135 224.528 3.00535C231.212 0.0513508 313.618 -0.0996451 320.069 2.83135C330.025 7.35335 331.751 12.7564 331.338 38.1044C331.338 38.1044 331.028 48.723 331.028 57.0994C331.028 65.4757 315.5 64.9513 315.5 64.9513H302.082H281.56C281.56 64.9513 280.5 65.4757 277 63.4757C273.5 61.4757 275.021 58.9133 274.681 49.5313C274.236 37.2183 273.036 35.9514 261.816 35.9514C254.924 35.9514 253 35.9757 251 36.9757C249 37.9757 248.5 40.4757 248.528 43.9757C248.557 47.4757 248.528 64.3274 248.528 64.3274C248.528 79.9038 247.831 87.158 251.121 90.5885C254.528 94.1403 262.208 93.5929 279.362 93.9394L304.696 94.4513C304.696 94.4513 311 95.4757 310.528 111.244C310.528 117.602 310.883 123.363 309 125.976C305.502 130.829 294.789 128.948 263.31 128.929C237.424 128.914 224.891 130.337 218.871 124.747C212.114 118.471 213.566 103.356 213.55 67.4444ZM362.951 21.9513C366.849 12.8313 373.134 6.63834 381.528 3.64434C385.635 2.17934 386.72 2.82035 385.857 6.20135C383.375 15.9274 385.894 27.6044 391.931 34.3574L394.528 37.2624V90.9524C394.528 141.492 394.634 144.737 396.338 146.279C397.963 147.75 403.354 147.922 449.151 147.969L500.154 148.02L505.604 153.236C513.139 160.447 518.998 162.441 530.136 161.584C534.752 161.23 538.528 161.185 538.528 161.485C538.528 166.383 527.86 176.977 520.258 179.627C512.059 182.486 391.845 182.422 383.528 179.555C376.988 177.3 370.014 172.742 368.393 169.663C367.753 168.447 366.909 167.226 366.518 166.951C364.934 165.837 362.656 160.083 361.563 154.438C359.366 143.091 360.578 27.5054 362.951 21.9513ZM147.971 145.728C150.623 141.942 150.291 38.1163 147.617 34.8123L145.706 32.4514L92.8673 32.2513C39.4513 32.0493 36.5203 32.2293 34.5933 35.8293C32.4593 39.8173 33.1813 144.327 35.3573 146.296C37.0113 147.793 42.3843 147.951 91.8003 147.951H146.415L147.971 145.728ZM59.5433 89.7334C59.5593 65.0464 59.8693 63.5484 65.5423 60.7034C68.5473 59.1954 72.0903 58.9544 91.2133 58.9534C107.94 58.9519 115.767 58.4368 119.412 62.0918C123.042 65.7305 122.528 73.502 122.528 90.0273V114.798L120.058 117.733L117.587 120.669L93.3083 121.201C75.3382 121.594 66.905 122.181 62.9603 118.257C59.1283 114.444 59.532 106.374 59.5433 89.7334ZM420.528 90.9323C420.528 64.0693 421.005 61.7903 427.013 59.9763C428.671 59.4763 440.706 59.1534 453.757 59.2594L477.486 59.4514L480.257 62.2223L483.028 64.9923L483.338 87.2223C483.691 112.541 483.387 115.25 479.816 118.56L477.236 120.951H451.805H426.374L423.451 118.028L420.528 115.105V90.9323ZM2.1513 222.934C3.7613 218.912 9.71131 213.781 14.0333 212.688C19.6943 211.256 119.674 211.975 122.561 213.468C127.26 215.898 128.531 219.571 128.506 230.651C128.492 236.848 128.496 240.689 126.634 243.07C123.585 246.968 115.532 246.951 94.2053 246.951C75.7816 246.951 68.1797 246.236 65.0288 249.64C62.3035 252.584 62.9081 258.611 62.7203 270.848L62.4123 290.926L64.9243 293.438C67.3833 295.897 67.7553 295.951 82.2333 295.936C99.5263 295.918 99.6003 295.887 100.619 288.379C101.98 278.346 104.775 276.529 119.47 276.119C140.49 275.533 141.528 276.832 141.528 303.72C141.528 314.922 142.394 321.547 139.539 325.455C134.825 331.908 119.969 330.95 74.3283 330.945C6.85828 330.939 4.7463 330.595 1.5583 319.119C-0.307701 312.401 0.214301 227.776 2.1513 222.934ZM417.55 229.297C417.575 218.469 418.418 216.41 424.028 213.488C426.655 212.12 433.435 211.958 478.528 212.188L530.028 212.451C530.028 212.451 535 211.976 538.5 217.976C542 223.976 542.384 231.987 542.452 271.733C542.505 302.686 544.172 317.806 537.405 325.065C529.759 333.266 511.348 331.431 467.678 331.057L455.328 330.951L451.928 327.551L448.528 324.151V302.501C448.528 286.991 448.123 279.6 451.617 276.089C455.142 272.545 462.639 272.951 478.528 272.951C506.819 272.951 507.528 272.618 507.528 259.327C507.528 253.443 507.239 252.508 504.605 249.874L501.682 246.951H463.652C432.855 246.951 422.588 247.216 419.191 242.516C417.315 239.92 417.536 235.807 417.55 229.297ZM386.528 342.728C386.528 325.643 387.393 321.56 391.645 318.582C394.495 316.585 411.947 316.273 416.056 318.146C421.523 320.637 421.528 320.689 421.528 373.951C421.528 411.847 422.317 425.496 416.165 430.354C412.032 433.617 404.768 432.913 392.028 432.927C365.849 432.957 363.532 431.288 363.53 412.39C363.527 398.343 363.118 397.951 348.457 397.951C330.085 397.951 327.528 395.855 327.528 380.794C327.528 373.636 327.397 369.455 329.386 366.971C332.3 363.332 339.765 363.336 358.86 362.951C375.512 362.616 382.225 363.069 384.89 360.003C387.095 357.466 386.528 352.521 386.528 342.728ZM1.8863 382.451C5.3393 373.162 12.6743 365.991 21.9663 362.819C28.1263 360.717 150.093 360.021 159.482 362.035C171.189 364.545 180.198 374.884 182.499 388.451C184.929 402.772 183.486 514.237 180.778 521.417C178.02 528.728 171.275 535.907 164.12 539.146L159.028 541.451H93.5283C34.2832 541.451 23.8165 541.776 16.9696 536.958C15.0164 535.583 13.3577 533.79 10.9453 531.451C8.44405 529.026 6.53281 527.337 5.07058 525.322C0.0607162 518.417 0.321639 507.689 0.182306 450.451C0.0373058 391.292 0.141302 387.146 1.8863 382.451ZM451.543 398.751C451.559 376.415 451.865 374.989 457.44 371.231C462.294 367.96 526.049 367.639 532.318 370.854C534.43 371.937 536.105 372.681 537.434 373.826C542.769 378.423 542.528 389.492 542.528 454.951C542.528 528.361 542.484 529.204 538.296 535.216C533.975 541.42 533.748 541.451 492.485 541.451C461.863 541.451 451.948 541.46 448.305 536.683C446.554 534.388 446.251 530.989 445.794 525.952C444.492 511.588 447.739 509.951 477.528 509.951C501.612 509.951 505.387 509.367 506.907 505.406C507.712 503.309 507.694 436.171 506.887 433.161C505.674 428.631 502.235 427.951 480.528 427.951C465.664 427.951 458.411 428.148 454.878 424.62C451.33 421.077 451.532 413.778 451.543 398.751ZM149.528 398.86L147.073 396.406L144.619 393.951L91.8233 394.03C37.2853 394.112 36.8603 394.132 34.7783 396.757C32.4023 399.753 33.0283 504.112 35.4403 507.09L37.3513 509.451H91.5283H145.705L147.616 507.09C149.445 504.832 149.528 502.424 149.528 451.795V398.86ZM216.861 398.944C217.398 398.436 218.022 398.019 218.745 397.512C220.43 396.331 223.539 395.959 231.501 395.983C237.72 396.002 241.589 395.721 244.022 397.454C248.361 400.546 248.134 410.045 248.528 439.076C248.943 469.654 248.882 477.221 252.309 479.468C253.596 480.311 255.374 480.405 257.853 480.684C273.925 482.496 275.331 480.323 275.188 453.916C275.114 440.245 274.985 433.177 278.455 429.58C282.253 425.641 290.363 425.862 307.575 426.13C320.401 426.331 327.611 425.656 331.626 428.916C337.485 433.673 336.543 446.806 336.316 483.259C336.115 515.633 337.629 530.087 331.164 536.507C324.769 542.858 310.566 541.348 279.17 541.549C244.492 541.772 227.988 543.684 220.2 536.347C211.74 528.375 213.566 509.486 213.55 465.651C213.53 409.038 213.463 402.16 216.861 398.944ZM60.0283 452.138C60.0283 425.04 60.1763 424.291 66.0283 421.896C69.7773 420.362 114.292 420.778 117.383 422.376C122.144 424.838 122.528 427.119 122.528 452.964V476.882L119.562 479.917L116.595 482.951H91.5773H66.5603L63.2943 480.033L60.0283 477.115V452.138ZM365.028 466.795L368.763 463.373L372.499 459.951H422.498H472.496L475.762 462.869L479.028 465.787V477.464V489.141L476.132 491.45C472.008 494.738 469.549 495.017 445.626 494.907C430.859 494.84 424.587 494.37 421.909 497.245C419.594 499.73 419.963 504.715 419.851 514.619C419.551 541.11 418.52 542.066 391.054 541.301C379.345 540.975 372.766 540.984 369.1 537.721C364.198 533.355 364.511 523.133 364.737 498.415L365.028 466.795Z" fill="black"/>
<path d="M404.879 29.9457C395.914 24.4797 395.647 6.39068 404.46 1.51068C408.863 -0.928318 512.254 -0.228323 518.697 2.28368C529.261 6.40168 537.484 14.5787 540.847 24.3117C543.663 32.4587 543.631 137.933 540.811 142.556C535.31 151.578 519.314 151.038 512.259 141.592C510.256 138.911 510.183 137.377 509.697 87.9387C509.234 40.8297 509.064 36.9127 507.414 35.2607C504.949 32.7937 493.853 32.2127 446.697 32.0777C409.916 31.9727 408.049 31.8777 404.879 29.9457Z" fill="#E11B34"/>
<path d="M178.745 288.346C151.217 245.704 163.493 198.683 205.074 187.496C228.255 181.259 258.494 194.875 268.803 216.192L271.108 220.956L273.695 215.936C296.46 171.755 363.871 178.639 376.431 226.427C386.617 265.182 355.837 312.861 294.24 353.74C268.308 370.95 273.04 370.318 255.555 358.911C221.278 336.549 193.225 310.777 178.745 288.346Z" fill="#E41C36"/>
</svg>
